<?xml version="1.0" encoding="UTF-8" standalone="no"?>
<svg
   xmlns:dc="http://purl.org/dc/elements/1.1/"
   xmlns:cc="http://creativecommons.org/ns#"
   xmlns:rdf="http://www.w3.org/1999/02/22-rdf-syntax-ns#"
   xmlns:svg="http://www.w3.org/2000/svg"
   xmlns="http://www.w3.org/2000/svg"
   xmlns:sodipodi="http://sodipodi.sourceforge.net/DTD/sodipodi-0.dtd"
   xmlns:inkscape="http://www.inkscape.org/namespaces/inkscape"
   width="82.162064mm"
   height="83.409874mm"
   viewBox="0 0 82.162064 83.409874"
   version="1.1"
   id="svg8"
   inkscape:version="1.0.2 (1.0.2+r75+1)"
   sodipodi:docname="ros.svg">
  <defs
     id="defs2">
    <clipPath
       id="clip1">
      <path
         id="path7"
         d="M 0.0585938,2 H 22 V 25 H 0.0585938 Z m 0,0" />
    </clipPath>
    <clipPath
       id="clip2">
      <path
         id="path10"
         d="M 0.0585938,40 H 22 V 64 H 0.0585938 Z m 0,0" />
    </clipPath>
    <clipPath
       id="clip3">
      <path
         id="path13"
         d="M 0.0585938,79 H 22 v 23 H 0.0585938 Z m 0,0" />
    </clipPath>
    <clipPath
       id="clip4">
      <path
         id="path16"
         d="m 220,0.894531 h 82 V 102.94141 h -82 z m 0,0" />
    </clipPath>
    <clipPath
       id="clip5">
      <path
         id="path19"
         d="m 316,0.894531 h 70.05078 V 102.94141 H 316 Z m 0,0" />
    </clipPath>
  </defs>
  <sodipodi:namedview
     id="base"
     pagecolor="#ffffff"
     bordercolor="#666666"
     borderopacity="1.0"
     inkscape:pageopacity="0.0"
     inkscape:pageshadow="2"
     inkscape:zoom="0.70134486"
     inkscape:cx="367.63255"
     inkscape:cy="156.41664"
     inkscape:document-units="mm"
     inkscape:current-layer="surface839"
     inkscape:document-rotation="0"
     showgrid="false"
     fit-margin-top="0"
     fit-margin-left="0"
     fit-margin-right="0"
     fit-margin-bottom="0"
     inkscape:window-width="1024"
     inkscape:window-height="518"
     inkscape:window-x="86"
     inkscape:window-y="132"
     inkscape:window-maximized="0" />
  <metadata
     id="metadata5">
    <rdf:RDF>
      <cc:Work
         rdf:about="">
        <dc:format>image/svg+xml</dc:format>
        <dc:type
           rdf:resource="http://purl.org/dc/dcmitype/StillImage" />
        <dc:title></dc:title>
      </cc:Work>
    </rdf:RDF>
  </metadata>
  <g
     inkscape:label="Layer 1"
     inkscape:groupmode="layer"
     id="layer1"
     transform="translate(-17.054262,-95.739913)">
    <g
       id="surface839"
       transform="matrix(0.83842181,0,0,0.83842181,17.005136,93.88949)">
      <g
         id="g22"
         clip-rule="nonzero"
         clip-path="url(#clip1)">
        <path
           id="path24"
           d="m 21.839844,13.492188 c 0,6.230468 -4.890625,11.285156 -10.917969,11.285156 C 4.890625,24.777344 0,19.722656 0,13.492188 0,7.257812 4.890625,2.207031 10.921875,2.207031 c 6.027344,0 10.917969,5.050781 10.917969,11.285157"
           style="fill:#212e4a;fill-opacity:1;fill-rule:nonzero;stroke:none" />
      </g>
      <g
         id="g26"
         clip-rule="nonzero"
         clip-path="url(#clip2)">
        <path
           id="path28"
           d="m 21.839844,51.949219 c 0,6.230469 -4.890625,11.285156 -10.917969,11.285156 C 4.890625,63.234375 0,58.179688 0,51.949219 0,45.714844 4.890625,40.664062 10.921875,40.664062 c 6.027344,0 10.917969,5.050782 10.917969,11.285157"
           style="fill:#212e4a;fill-opacity:1;fill-rule:nonzero;stroke:none" />
      </g>
      <g
         id="g30"
         clip-rule="nonzero"
         clip-path="url(#clip3)">
        <path
           id="path32"
           d="m 21.839844,90.40625 c 0,6.230469 -4.890625,11.28516 -10.917969,11.28516 C 4.890625,101.69141 0,96.636719 0,90.40625 0,84.175781 4.890625,79.121094 10.921875,79.121094 c 6.027344,0 10.917969,5.054687 10.917969,11.285156"
           style="fill:#212e4a;fill-opacity:1;fill-rule:nonzero;stroke:none" />
      </g>
      <path
         id="path34"
         d="m 59.945313,51.949219 c 0,6.230469 -4.886718,11.285156 -10.917968,11.285156 -6.03125,0 -10.921875,-5.054687 -10.921875,-11.285156 0,-6.234375 4.890625,-11.285157 10.921875,-11.285157 6.03125,0 10.917968,5.050782 10.917968,11.285157"
         style="fill:#212e4a;fill-opacity:1;fill-rule:nonzero;stroke:none;stroke-width:1" />
      <path
         id="path36"
         d="m 59.945313,13.492188 c 0,6.230468 -4.886718,11.285156 -10.917968,11.285156 -6.03125,0 -10.921875,-5.054688 -10.921875,-11.285156 0,-6.234376 4.890625,-11.285157 10.921875,-11.285157 6.03125,0 10.917968,5.050781 10.917968,11.285157"
         style="fill:#212e4a;fill-opacity:1;fill-rule:nonzero;stroke:none;stroke-width:1" />
      <path
         id="path38"
         d="m 98.054688,51.949219 c 0,6.230469 -4.890623,11.285156 -10.921877,11.285156 -6.031248,0 -10.917966,-5.054687 -10.917966,-11.285156 0,-6.234375 4.886718,-11.285157 10.917966,-11.285157 6.031254,0 10.921877,5.050782 10.921877,11.285157"
         style="fill:#212e4a;fill-opacity:1;fill-rule:nonzero;stroke:none;stroke-width:1" />
      <path
         id="path40"
         d="m 98.054688,13.492188 c 0,6.230468 -4.890623,11.285156 -10.921877,11.285156 -6.031248,0 -10.917966,-5.054688 -10.917966,-11.285156 0,-6.234376 4.886718,-11.285157 10.917966,-11.285157 6.031254,0 10.921877,5.050781 10.921877,11.285157"
         style="fill:#212e4a;fill-opacity:1;fill-rule:nonzero;stroke:none;stroke-width:1" />
      <path
         id="path42"
         d="m 98.054688,90.40625 c 0,6.230469 -4.890623,11.28516 -10.921877,11.28516 -6.031248,0 -10.917966,-5.054691 -10.917966,-11.28516 0,-6.230469 4.886718,-11.285156 10.917966,-11.285156 6.031254,0 10.921877,5.054687 10.921877,11.285156"
         style="fill:#212e4a;fill-opacity:1;fill-rule:nonzero;stroke:none;stroke-width:1" />
      <path
         id="path44"
         d="m 59.945313,90.40625 c 0,6.230469 -4.886718,11.28516 -10.917968,11.28516 -6.03125,0 -10.921875,-5.054691 -10.921875,-11.28516 0,-6.230469 4.890625,-11.285156 10.921875,-11.285156 6.03125,0 10.917968,5.054687 10.917968,11.285156"
         style="fill:#212e4a;fill-opacity:1;fill-rule:nonzero;stroke:none;stroke-width:1" />
    </g>
  </g>
</svg>
